<svg t="1691233332366" class="icon" viewBox="0 0 1024 1024" version="1.1" xmlns="http://www.w3.org/2000/svg" p-id="1150" width="200" height="200"><path d="M989.92 784l-27.36-1.76a152.64 152.64 0 0 0-7.84-18.24l17.44-19.84a12.8 12.8 0 0 0 0-17.44l-41.28-41.28a12.96 12.96 0 0 0-17.44 0l-21.28 16.96a149.76 149.76 0 0 0-18.24-7.36l-1.92-26.4a12.64 12.64 0 0 0-12.64-11.84h-58.4a12.96 12.96 0 0 0-12.8 11.84l-1.76 27.52A129.6 129.6 0 0 0 768 704l-19.68-17.6a12.8 12.8 0 0 0-8.32-3.04 13.28 13.28 0 0 0-9.12 3.68l-41.28 41.28a12.96 12.96 0 0 0 0 17.44l18.08 20.64a142.24 142.24 0 0 0-7.36 18.4l-26.24 1.76a12.8 12.8 0 0 0-12 12.64v58.4a12.96 12.96 0 0 0 12 12.8l27.36 1.76a129.6 129.6 0 0 0 7.68 18.24l-17.44 19.84a12.96 12.96 0 0 0 0 17.44l41.28 41.28a12.48 12.48 0 0 0 9.12 3.68 12.8 12.8 0 0 0 8.32-3.04l20.64-18.08a142.24 142.24 0 0 0 18.4 7.36l1.76 26.4a12.8 12.8 0 0 0 12.64 11.84h58.4a12.96 12.96 0 0 0 12.8-11.84l1.92-27.36a162.4 162.4 0 0 0 18.08-7.84l19.84 17.44a12.96 12.96 0 0 0 17.44 0l41.28-41.28a12.8 12.8 0 0 0 0-17.44l-18.08-20.64a149.76 149.76 0 0 0 7.36-18.24l26.4-1.92a12.8 12.8 0 0 0 11.84-12.64v-59.04a12.96 12.96 0 0 0-11.2-12.32z m-16 57.76l-12.96 0.8-16.96 0.8-5.6 17.6a104.8 104.8 0 0 1-5.92 14.72l-7.84 16 11.84 13.6 9.12 10.4-22.08 22.24-9.76-8.48-13.92-12.16-16 8.48a117.28 117.28 0 0 1-14.56 6.24l-16.96 5.92-1.28 17.92-0.96 13.92h-32l-2.08-12.8v-18.4l-17.6-5.6a96 96 0 0 1-14.56-5.92l-16-7.84-13.44 11.84-10.56 9.12L720 917.92l8.48-9.76 12.16-13.76-8.48-16a128 128 0 0 1-5.76-14.4l-6.4-17.6-17.92-1.28-14.08-0.96v-32l12.96-0.96 19.04-0.64 5.6-17.6a115.52 115.52 0 0 1 5.92-14.56l7.84-16-11.84-13.6-9.12-10.4 22.24-22.24 9.76 8.48 13.92 12.16 16-8.48a128 128 0 0 1 14.56-6.24l17.12-5.92 1.12-17.92 0.96-13.92h32l0.8 12.96 1.12 18.08 17.6 5.6a104.8 104.8 0 0 1 14.72 5.92l16 7.84 13.6-11.84 10.4-9.12 22.4 22.24-8.48 9.76-12.16 13.76 8.48 16a117.28 117.28 0 0 1 6.24 14.56l5.92 16.96 17.92 1.28 13.92 0.96z" fill="#1296db" p-id="1151"></path><path d="M832 752.8a74.24 74.24 0 1 0 74.08 74.24A74.24 74.24 0 0 0 832 752.8z m0 119.84a45.76 45.76 0 1 1 45.76-45.6A45.76 45.76 0 0 1 832 872.64zM678.88 955.68a1164.48 1164.48 0 0 1-208 18.56l8.16-160 43.84-83.2 136.16 24h2.72a16 16 0 0 0 16-19.68L656 642.08a424.96 424.96 0 0 1 40.64 21.12 16 16 0 0 0 8.16 2.24 16 16 0 0 0 8.32-29.6 480 480 0 0 0-59.52-29.6 274.24 274.24 0 0 0 72.8-115.04 125.28 125.28 0 0 0 78.24-36.48 96 96 0 0 0 28.48-69.6c-1.12-43.2-45.6-64-93.44-68.32v-24.96A274.24 274.24 0 0 0 465.28 17.76c-6.88 0-13.76 0-20.48 0.96a22.56 22.56 0 0 0-6.56 0h-0.8A274.4 274.4 0 0 0 192 291.84v25.12c-48 4-91.36 25.44-92.48 68.16A96 96 0 0 0 128 454.24a126.88 126.88 0 0 0 76.48 36.64 275.52 275.52 0 0 0 73.12 115.52A423.68 423.68 0 0 0 22.72 898.56a23.84 23.84 0 0 0 5.44 20.48c32 39.52 235.84 87.2 442.4 87.2a1179.04 1179.04 0 0 0 214.24-19.2 16 16 0 1 0-5.92-32z m60.48-548.48v-58.24c28.32 2.72 60.8 13.44 61.44 36.96A64 64 0 0 1 781.44 432a93.12 93.12 0 0 1-46.88 25.44 277.76 277.76 0 0 0 4.8-50.24zM150.72 432a62.72 62.72 0 0 1-19.2-45.92c0-23.04 32-33.76 59.68-36.8v58.08a267.68 267.68 0 0 0 4.8 49.76A93.44 93.44 0 0 1 150.72 432z m388.16 268.48l18.72-35.52a266.24 266.24 0 0 0 63.04-32l20.32 85.6zM460.16 49.92h5.12a242.24 242.24 0 0 1 242.08 241.92v33.92c-16 3.36-230.88 46.08-295.68-70.56 1.76-2.4 3.68-4.8 5.28-7.2a306.24 306.24 0 0 0 43.2-198.08zM224 291.84A242.56 242.56 0 0 1 428.16 52.8a277.76 277.76 0 0 1-38.08 177.92c-34.56 52.48-90.72 88.16-166.08 106.56z m9.76 183.2a14.08 14.08 0 0 0-1.6-6.4 243.2 243.2 0 0 1-8.16-61.44v-36.96a317.76 317.76 0 0 0 167.04-88.8C436.8 352 528 368 602.08 368a576 576 0 0 0 105.28-10.08v48.8a242.08 242.08 0 0 1-474.4 67.84z m153.76 226.56l-86.24 16 18.88-80a278.4 278.4 0 0 0 46.72 23.68z m52.48 272c-210.4-4.48-362.24-53.12-384-72.64a391.84 391.84 0 0 1 230.88-264l-23.2 97.76a16 16 0 0 0 16 19.68 9.28 9.28 0 0 0 3.04 0l120.16-22.88 43.68 83.04a20.64 20.64 0 0 0 0.96 4z m23.36-197.12l-53.28-101.12a269.28 269.28 0 0 0 56 5.76 288 288 0 0 0 50.08-4.64z" fill="#1296db" p-id="1152"></path></svg>
